<svg width="64" height="64" viewBox="0 0 64 64" fill="none" xmlns="http://www.w3.org/2000/svg">
<path d="M36.0936 7.76567C36.2131 5.80401 36.8704 3.84236 37.9461 2.05903C38.2448 1.58348 38.5436 1.16737 38.8424 0.69182C41.5315 1.28626 44.101 2.17792 46.551 3.42625C45.7144 4.55569 45.0571 5.86346 44.8181 7.409C44.5791 8.95455 44.7583 10.619 45.3559 12.1051C46.0132 13.5912 46.9693 14.899 48.1047 15.9095C49.2401 16.9795 50.495 17.7523 51.8694 18.4656C54.5584 19.7734 57.4268 20.5462 60.3548 20.7839C60.9524 20.8434 61.55 20.8434 62.1475 20.8434C62.2671 21.2 62.4463 21.6161 62.5658 22.0323C61.4305 22.1511 60.3548 22.27 59.2195 22.27C55.0365 22.3889 50.7938 21.8539 46.9096 20.4867C43.0254 19.06 39.44 16.7417 37.5278 13.3534C36.4521 11.689 35.9741 9.72732 36.0936 7.76567ZM57.5463 36.1205C50.734 35.7638 43.9217 34.3372 37.707 31.4244C34.5997 29.9978 31.6119 28.155 28.9826 25.8367C26.3533 23.5184 24.0825 20.7245 22.7081 17.4551C21.2739 14.1856 20.7959 10.5001 21.3337 7.05234C21.6325 5.03124 22.2898 3.06958 23.1264 1.28626C19.302 2.35625 15.7763 4.13958 12.7287 6.4579C12.669 6.93345 12.6092 7.46845 12.5495 7.944C12.2507 11.8079 13.0873 15.7312 14.9397 19.1195C16.7324 22.5078 19.4812 25.48 22.5886 27.8578C25.7557 30.2355 29.2813 32.1378 32.9863 33.5644C40.4558 36.4772 48.5828 37.6661 56.6499 37.6066C58.9804 37.6066 61.3109 37.4283 63.6415 37.1905C63.7012 36.8338 63.761 36.4772 63.8207 36.0611C61.7292 36.2394 59.6378 36.2394 57.5463 36.1205ZM31.7314 22.5078C34.1216 24.3506 36.8107 25.7772 39.6193 26.9067C45.2961 29.1061 51.5108 30.0572 57.6658 29.9383C59.817 29.9383 61.9085 29.76 64 29.5222C64 29.3439 64 29.1656 63.9402 29.0467C63.9402 28.8683 63.8805 28.69 63.8805 28.5117C62.2671 28.5711 60.6536 28.5711 59.0402 28.5117C54.1999 28.2144 49.3596 27.1445 44.8778 25.0639C42.6668 23.9939 40.5156 22.6861 38.6631 21.0812C36.8107 19.4167 35.1375 17.3956 34.0619 15.0773C32.9863 12.759 32.568 10.084 32.9863 7.52789C33.3448 5.03124 34.4204 2.71292 35.8546 0.751264C35.9741 0.572932 36.0936 0.454044 36.2131 0.335155C33.9424 -0.0215093 31.6119 -0.0809534 29.2216 0.097379C28.2655 0.156823 27.3691 0.335155 26.4728 0.454044C25.3374 2.65348 24.5606 5.03124 24.3813 7.409C24.0825 10.3218 24.6801 13.294 26.0545 15.8501C27.3094 18.4656 29.3411 20.7245 31.7314 22.5078ZM56.5304 43.8482C47.8059 43.4916 39.0814 41.7082 31.074 38.1416C27.0703 36.3583 23.2459 34.0994 19.8398 31.1866C16.4336 28.3333 13.5056 24.8856 11.5933 20.7839C9.92016 17.2767 9.14332 13.294 9.32259 9.4301C2.86886 15.8501 -0.716539 24.945 0.120055 34.6939C1.67373 52.2299 17.2702 65.1887 34.8985 63.5837C47.2681 62.5137 57.367 54.5482 61.7292 43.8482C59.9963 43.9077 58.2634 43.9077 56.5304 43.8482ZM48.7023 4.61513C48.7023 4.61513 48.7023 4.67458 48.7023 4.61513C48.1645 5.62568 47.8657 6.69568 47.8657 7.70622C47.8657 8.71677 48.1645 9.66788 48.7023 10.4407C49.7779 12.1051 51.6901 13.2345 53.7816 13.8884C55.4548 14.4234 57.2475 14.6017 59.0402 14.6017C56.3511 10.5595 52.8255 7.17123 48.7023 4.61513Z" fill="#1345AE"/>
</svg>
